# xmcd
#
# Track frame offsets:
#	150
#	14416
#	25924
#	33546
#	40249
#	55167
#	70469
#	85976
#	101270
#	115645
#	134187
#	150528
#	168008
#	180121
#	194276
#	198693
#	207264
#	221841
#	235866
#	250005
#
# Disc length: 3501 seconds
#
# Revision: 0
# Processed by: cddbd v1.5.2PL0 Copyright (c) Steve Scherf et al.
# Submitted via: EasyCDDAExtractor 16.0.8.1
#
DISCID=130dab14
DTITLE=Βασίλης Τσιτάνης - Βασίλης Τσιτάνης 08
DYEAR=1900
DGENRE=Vocal
TTITLE0=Σωτηρία Μπέλλου - Οταν ΣυμβειΣτα Περιξ
TTITLE1=Περικλής Περάκης - Ξημερωνει Και Βραδιαζει
TTITLE2=Γλυκερία - Αποψε Στις Ακογιαλιες
TTITLE3=Γλυκερία - Μπαξε Τσιφλικι
TTITLE4=Γιάννης Πουλόπουλος - Η Αχαριστη
TTITLE5=Στέλιος Καζαντζίδης - Η Φωτια
TTITLE6=Στράτος Παγιουμτζής - Το Φιλι Δεν Ειναι κΚριμα
TTITLE7=τάκης Βεργιώτης - τα Νιατα Μπρμπαντικα
TTITLE8=Αλεξάνδρα - Νοστααλγια
TTITLE9=Μαριώ - Φτωχια Που Με Κουρελιασες
TTITLE10=Σωτηρία Μπέλλου - Ποια Καρδια Δε Θα Ραϊσει
TTITLE11=Ελευθερία Αρβανιτάκη and Οπισθοδρονικ΄κ Κομπανία - Η Σεραχ
TTITLE12=Αγάθωνας Ιακωβίδης and Κατερίνα Τσιρίδου - φαμπρικες
TTITLE13=Νίκος Γιουλάκης - Ο Τραυματιας
TTITLE14=Αννα Χρυσάφη - Βρε Μαγκα Σπασε
TTITLE15=Αννα Χρυσάφη - Μη Μου Ξαναφυγεις Πια
TTITLE16=Στράτος Κύπριος - Το 'Ξερα Πως Θα Μου Φυγεις
TTITLE17=Δημήτρης Μαρσέλος and Σοφία Σιδέρη - Η Γυναικα Μου Η Μουρμουρα
TTITLE18=Σωτηρία Μπέλλου - Καποια Μανα Αναστεναζει
TTITLE19=Βασίλης Ηλιάδης - Ζαϊρα
EXTD=
EXTT0=
EXTT1=
EXTT2=
EXTT3=
EXTT4=
EXTT5=
EXTT6=
EXTT7=
EXTT8=
EXTT9=
EXTT10=
EXTT11=
EXTT12=
EXTT13=
EXTT14=
EXTT15=
EXTT16=
EXTT17=
EXTT18=
EXTT19=
PLAYORDER=
